{
    "accessors" : [
        {
            "bufferView" : 0,
            "componentType" : 5123,
            "count" : 2448,
            "max" : [
                646
            ],
            "min" : [
                0
            ],
            "type" : "SCALAR"
        },
        {
            "bufferView" : 1,
            "componentType" : 5126,
            "count" : 647,
            "max" : [
                0.8844507932662964,
                0.8042031526565552,
                0.12808942794799805
            ],
            "min" : [
                -0.8844507932662964,
                -0.9758031368255615,
                -0.18492990732192993
            ],
            "type" : "VEC3"
        },
        {
            "bufferView" : 2,
            "componentType" : 5126,
            "count" : 647,
            "max" : [
                0.9985045790672302,
                0.999969482421875,
                0.999908447265625
            ],
            "min" : [
                -0.9985045790672302,
                -1.0,
                -0.999755859375
            ],
            "type" : "VEC3"
        },
        {
            "bufferView" : 3,
            "componentType" : 5126,
            "count" : 647,
            "max" : [
                1.0,
                0.8829488158226013,
                0.9991642236709595,
                1.0
            ],
            "min" : [
                -0.9995339512825012,
                -0.8809005618095398,
                -1.0,
                1.0
            ],
            "type" : "VEC4"
        },
        {
            "bufferView" : 4,
            "componentType" : 5126,
            "count" : 647,
            "max" : [
                1.0,
                1.0
            ],
            "min" : [
                0.0,
                0.023292243480682373
            ],
            "type" : "VEC2"
        },
        {
            "bufferView" : 5,
            "componentType" : 5123,
            "count" : 647,
            "max" : [
                24,
                23,
                0,
                0
            ],
            "min" : [
                0,
                0,
                0,
                0
            ],
            "type" : "VEC4"
        },
        {
            "bufferView" : 6,
            "componentType" : 5126,
            "count" : 647,
            "max" : [
                1.0,
                1.0,
                0.0,
                0.0
            ],
            "min" : [
                1.0,
                0.0,
                0.0,
                0.0
            ],
            "type" : "VEC4"
        },
        {
            "bufferView" : 7,
            "componentType" : 5126,
            "count" : 25,
            "max" : [
                1.0,
                0.9986213445663452,
                0.9107081294059753,
                0.0,
                0.9438956379890442,
                0.9948988556861877,
                0.9996123909950256,
                0.0,
                0.9986233711242676,
                0.9986997842788696,
                0.9948988556861877,
                0.0,
                0.43987417221069336,
                0.4703674018383026,
                0.1012406125664711,
                1.0
            ],
            "min" : [
                -0.8971403241157532,
                -0.9986213445663452,
                -0.9107080698013306,
                0.0,
                -0.9438953995704651,
                -0.9999616742134094,
                -0.9986982345581055,
                0.0,
                -0.9986234307289124,
                -0.07687962055206299,
                -0.9999616742134094,
                0.0,
                -0.4623216688632965,
                -0.8065047860145569,
                -0.9543102979660034,
                1.0
            ],
            "type" : "MAT4"
        }
    ],
    "asset" : {
        "generator" : "Khronos Blender glTF 2.0 exporter",
        "version" : "2.0"
    },
    "bufferViews" : [
        {
            "buffer" : 0,
            "byteLength" : 4896,
            "byteOffset" : 0,
            "target" : 34963
        },
        {
            "buffer" : 0,
            "byteLength" : 7764,
            "byteOffset" : 4896,
            "target" : 34962
        },
        {
            "buffer" : 0,
            "byteLength" : 7764,
            "byteOffset" : 12660,
            "target" : 34962
        },
        {
            "buffer" : 0,
            "byteLength" : 10352,
            "byteOffset" : 20424,
            "target" : 34962
        },
        {
            "buffer" : 0,
            "byteLength" : 5176,
            "byteOffset" : 30776,
            "target" : 34962
        },
        {
            "buffer" : 0,
            "byteLength" : 5176,
            "byteOffset" : 35952,
            "target" : 34962
        },
        {
            "buffer" : 0,
            "byteLength" : 10352,
            "byteOffset" : 41128,
            "target" : 34962
        },
        {
            "buffer" : 0,
            "byteLength" : 1600,
            "byteOffset" : 51480
        }
    ],
    "buffers" : [
        {
            "byteLength" : 53080,
            "uri" : "base-female.bin"
        }
    ],
    "materials" : [
        {
            "name" : "Material.002",
            "pbrMetallicRoughness" : {
                "baseColorFactor" : [
                    0.6400000190734865,
                    0.6400000190734865,
                    0.6400000190734865,
                    1.0
                ],
                "metallicFactor" : 0.0
            }
        }
    ],
    "meshes" : [
        {
            "name" : "meHumanFemale",
            "primitives" : [
                {
                    "attributes" : {
                        "JOINTS_0" : 5,
                        "NORMAL" : 2,
                        "POSITION" : 1,
                        "TANGENT" : 3,
                        "TEXCOORD_0" : 4,
                        "WEIGHTS_0" : 6
                    },
                    "indices" : 0,
                    "material" : 0
                }
            ]
        }
    ],
    "nodes" : [
        {
            "name" : "Camera",
            "rotation" : [
                0.43479645252227783,
                0.33487582206726074,
                -0.17379958927631378,
                0.8176820874214172
            ],
            "scale" : [
                1.0,
                0.9999999403953552,
                1.0
            ],
            "translation" : [
                2.909970998764038,
                3.795806407928467,
                3.031431198120117
            ]
        },
        {
            "children" : [
                4
            ],
            "name" : "FemaleArm",
            "translation" : [
                -0.012511372566223145,
                1.5059551000595093,
                0.0008576810359954834
            ]
        },
        {
            "mesh" : 0,
            "name" : "HumanFemale",
            "rotation" : [
                0.0,
                -1.5099580252808664e-07,
                -0.0,
                1.0
            ],
            "skin" : 0,
            "translation" : [
                0.0,
                0.9827367663383484,
                -0.0
            ]
        },
        {
            "name" : "Lamp",
            "rotation" : [
                0.16907575726509094,
                0.7558802962303162,
                -0.27217137813568115,
                0.570947527885437
            ],
            "scale" : [
                1.0,
                1.0,
                0.9999999403953552
            ],
            "translation" : [
                1.908151626586914,
                5.903861999511719,
                6.422436237335205
            ]
        },
        {
            "children" : [
                5,
                14,
                21,
                22
            ],
            "name" : "FemaleArm_Back",
            "rotation" : [
                0.999676525592804,
                -7.881570063261734e-09,
                -7.881570063261734e-09,
                0.025435445830225945
            ],
            "scale" : [
                1.0,
                0.9999999403953552,
                0.9999999403953552
            ],
            "translation" : [
                2.0354605112515856e-08,
                -0.055629875510931015,
                -0.067401222884655
            ]
        },
        {
            "children" : [
                6,
                10
            ],
            "name" : "FemaleArm_Hip",
            "rotation" : [
                0.02105262503027916,
                -2.8845516908404534e-07,
                -1.2763672785354174e-08,
                0.9997783899307251
            ],
            "scale" : [
                1.0,
                0.9999999403953552,
                0.9999999403953552
            ],
            "translation" : [
                -4.440892098500626e-16,
                0.28708556294441223,
                -7.450580596923828e-09
            ]
        },
        {
            "children" : [
                7
            ],
            "name" : "FemaleArm_Thigh.Right",
            "rotation" : [
                -0.010735047049820423,
                -0.04438016563653946,
                0.04401347413659096,
                0.9979869723320007
            ],
            "translation" : [
                -0.08069761842489243,
                0.1908498853445053,
                -0.0058442214503884315
            ]
        },
        {
            "children" : [
                8
            ],
            "name" : "FemaleArm_Shin.Right",
            "rotation" : [
                0.055311139672994614,
                -0.00038190887426026165,
                -0.004402544349431992,
                0.9984593987464905
            ],
            "scale" : [
                1.0000001192092896,
                1.0,
                0.9999999403953552
            ],
            "translation" : [
                8.381903171539307e-09,
                0.42770159244537354,
                9.313225746154785e-10
            ]
        },
        {
            "children" : [
                9
            ],
            "name" : "FemaleArm_Foot.Right",
            "rotation" : [
                -0.6010218262672424,
                0.03199055790901184,
                0.018198855221271515,
                0.7983847260475159
            ],
            "scale" : [
                0.9999999403953552,
                0.9999999403953552,
                1.0000001192092896
            ],
            "translation" : [
                -5.587935447692871e-09,
                0.47943177819252014,
                -9.313225746154785e-10
            ]
        },
        {
            "name" : "FemaleArm_Toes.Right",
            "rotation" : [
                -0.1528778374195099,
                0.04012804478406906,
                -0.001147375674918294,
                0.9874293804168701
            ],
            "scale" : [
                1.0000001192092896,
                0.9999999403953552,
                1.0
            ],
            "translation" : [
                1.2922100722789764e-08,
                0.13394951820373535,
                1.0058283805847168e-07
            ]
        },
        {
            "children" : [
                11
            ],
            "name" : "FemaleArm_Thigh.Left",
            "rotation" : [
                -0.010735118761658669,
                0.04438071697950363,
                -0.04401326924562454,
                0.9979869723320007
            ],
            "scale" : [
                1.0000001192092896,
                1.0000001192092896,
                1.0
            ],
            "translation" : [
                0.08069762587547302,
                0.1908498853445053,
                -0.005844365805387497
            ]
        },
        {
            "children" : [
                12
            ],
            "name" : "FemaleArm_Shin.Left",
            "rotation" : [
                0.055311162024736404,
                0.0003798827528953552,
                0.00440225750207901,
                0.9984593987464905
            ],
            "scale" : [
                0.9999999403953552,
                1.0,
                0.9999998807907104
            ],
            "translation" : [
                -6.984919309616089e-09,
                0.427701473236084,
                5.587935447692871e-09
            ]
        },
        {
            "children" : [
                13
            ],
            "name" : "FemaleArm_Foot.Left",
            "rotation" : [
                -0.6010223031044006,
                -0.0319896824657917,
                -0.01819673925638199,
                0.7983844876289368
            ],
            "scale" : [
                1.0,
                1.0,
                0.9999999403953552
            ],
            "translation" : [
                -1.7229467630386353e-08,
                0.4794316291809082,
                -4.6566128730773926e-09
            ]
        },
        {
            "name" : "FemaleArm_Toes.Left",
            "rotation" : [
                -0.15287724137306213,
                -0.04015420749783516,
                0.00115225522313267,
                0.9874284267425537
            ],
            "scale" : [
                1.0,
                0.9999999403953552,
                1.0
            ],
            "translation" : [
                1.210719347000122e-08,
                0.1339496672153473,
                2.8870999813079834e-08
            ]
        },
        {
            "children" : [
                15
            ],
            "name" : "FemaleArm_Upperarm.Right",
            "rotation" : [
                0.06940687447786331,
                -0.724934458732605,
                0.024508878588676453,
                0.6848738193511963
            ],
            "translation" : [
                -0.13893045485019684,
                0.008106018416583538,
                0.016254756599664688
            ]
        },
        {
            "children" : [
                16
            ],
            "name" : "FemaleArm_Forearm.Right",
            "rotation" : [
                0.024846045300364494,
                0.003881458193063736,
                0.03566786274313927,
                0.9990472793579102
            ],
            "scale" : [
                0.9999999403953552,
                1.0,
                0.9999998807907104
            ],
            "translation" : [
                -9.313225746154785e-09,
                0.29366448521614075,
                5.122274160385132e-09
            ]
        },
        {
            "children" : [
                17,
                19
            ],
            "name" : "FemaleArm_Hand.Right",
            "rotation" : [
                -0.005430222954601049,
                0.006237690802663565,
                0.009421134367585182,
                0.9999215006828308
            ],
            "scale" : [
                0.9999998807907104,
                0.9999998807907104,
                1.0
            ],
            "translation" : [
                9.66247171163559e-09,
                0.2422059327363968,
                -6.984919309616089e-10
            ]
        },
        {
            "children" : [
                18
            ],
            "name" : "FemaleArm_Fingers1.Right",
            "rotation" : [
                -0.007455759681761265,
                0.007539190351963043,
                -0.016876600682735443,
                0.9998013973236084
            ],
            "scale" : [
                0.9999999403953552,
                0.9999999403953552,
                0.9999998807907104
            ],
            "translation" : [
                0.0013846127549186349,
                0.11542192846536636,
                0.0011869496665894985
            ]
        },
        {
            "name" : "FemaleArm_Fingers2.Right",
            "rotation" : [
                -0.06185908988118172,
                0.06447213143110275,
                -0.02093963883817196,
                0.9957802891731262
            ],
            "scale" : [
                1.0,
                1.0,
                0.9999999403953552
            ],
            "translation" : [
                1.0477378964424133e-08,
                0.0490180104970932,
                -8.149072527885437e-10
            ]
        },
        {
            "children" : [
                20
            ],
            "name" : "FemaleArm_Thumb1.Right",
            "rotation" : [
                -0.2530302405357361,
                0.5752682089805603,
                0.07898171991109848,
                0.7738244533538818
            ],
            "scale" : [
                0.9999998211860657,
                0.9999999403953552,
                0.9999999403953552
            ],
            "translation" : [
                -0.039877135306596756,
                0.047884535044431686,
                -0.004520200192928314
            ]
        },
        {
            "name" : "FemaleArm_Thumb2.Right",
            "rotation" : [
                0.044581782072782516,
                -0.375959575176239,
                -0.02684844471514225,
                0.9251735210418701
            ],
            "scale" : [
                1.0,
                1.0000001192092896,
                0.9999999403953552
            ],
            "translation" : [
                1.1641532182693481e-09,
                0.051280952990055084,
                -4.6566128730773926e-08
            ]
        },
        {
            "name" : "FemaleArm_Head",
            "rotation" : [
                -0.9971162676811218,
                1.5290797961142744e-08,
                1.159369205083749e-07,
                0.07588917016983032
            ],
            "translation" : [
                -7.875548213576167e-09,
                -0.08171406388282776,
                -0.02478482387959957
            ]
        },
        {
            "children" : [
                23
            ],
            "name" : "FemaleArm_Upperarm.Left",
            "rotation" : [
                0.06940682232379913,
                0.7249346375465393,
                -0.02450895495712757,
                0.6848735809326172
            ],
            "scale" : [
                1.0,
                0.9999999403953552,
                1.0
            ],
            "translation" : [
                0.13893048465251923,
                0.008106019347906113,
                0.016254663467407227
            ]
        },
        {
            "children" : [
                24
            ],
            "name" : "FemaleArm_Forearm.Left",
            "rotation" : [
                0.02484607882797718,
                -0.0038813641294837,
                -0.03566771000623703,
                0.9990472793579102
            ],
            "scale" : [
                1.0,
                0.9999999403953552,
                0.9999998807907104
            ],
            "translation" : [
                -1.6298145055770874e-09,
                0.29366448521614075,
                -2.3283064365386963e-09
            ]
        },
        {
            "children" : [
                25,
                27
            ],
            "name" : "FemaleArm_Hand.Left",
            "rotation" : [
                -0.005430244375020266,
                -0.00623771408572793,
                -0.009421033784747124,
                0.9999215006828308
            ],
            "scale" : [
                0.9999998807907104,
                0.9999998807907104,
                1.0
            ],
            "translation" : [
                1.862645149230957e-09,
                0.24220582842826843,
                -7.450580596923828e-09
            ]
        },
        {
            "children" : [
                26
            ],
            "name" : "FemaleArm_Fingers1.Left",
            "rotation" : [
                -0.007455748040229082,
                -0.0075391726568341255,
                0.016876451671123505,
                0.9998013377189636
            ],
            "scale" : [
                0.9999999403953552,
                0.9999998807907104,
                0.9999999403953552
            ],
            "translation" : [
                -0.0013846068177372217,
                0.11542189121246338,
                0.0011869494337588549
            ]
        },
        {
            "name" : "FemaleArm_Fingers2.Left",
            "rotation" : [
                -0.06185908243060112,
                -0.06447211652994156,
                0.02093973010778427,
                0.9957802891731262
            ],
            "scale" : [
                0.9999998807907104,
                0.9999999403953552,
                0.9999999403953552
            ],
            "translation" : [
                -6.577465683221817e-09,
                0.049018003046512604,
                -1.280568540096283e-09
            ]
        },
        {
            "children" : [
                28
            ],
            "name" : "FemaleArm_Thumb1.Left",
            "rotation" : [
                -0.2530304193496704,
                -0.5752682089805603,
                -0.07898147404193878,
                0.7738243341445923
            ],
            "scale" : [
                0.9999999403953552,
                0.9999999403953552,
                1.0
            ],
            "translation" : [
                0.03987712040543556,
                0.0478844977915287,
                -0.004520203918218613
            ]
        },
        {
            "name" : "FemaleArm_Thumb2.Left",
            "rotation" : [
                0.044581349939107895,
                0.37596073746681213,
                0.02684786356985569,
                0.9251731038093567
            ],
            "scale" : [
                0.9999999403953552,
                1.0,
                0.9999998807907104
            ],
            "translation" : [
                2.3283064365386963e-09,
                0.0512809231877327,
                6.845220923423767e-08
            ]
        }
    ],
    "scene" : 0,
    "scenes" : [
        {
            "name" : "Scene",
            "nodes" : [
                1,
                3,
                0,
                2
            ]
        }
    ],
    "skins" : [
        {
            "inverseBindMatrices" : 7,
            "joints" : [
                4,
                5,
                6,
                7,
                8,
                9,
                10,
                11,
                12,
                13,
                14,
                15,
                16,
                17,
                18,
                19,
                20,
                21,
                22,
                23,
                24,
                25,
                26,
                27,
                28
            ],
            "skeleton" : 1
        }
    ]
}
